<?xml version="1.0" standalone="no"?>
<!DOCTYPE svg PUBLIC "-//W3C//DTD SVG 20010904//EN"
 "http://www.w3.org/TR/2001/REC-SVG-20010904/DTD/svg10.dtd">
<svg version="1.0" xmlns="http://www.w3.org/2000/svg"
 width="1378.000000pt" height="1368.000000pt" viewBox="0 0 1378.000000 1368.000000"
 preserveAspectRatio="xMidYMid meet">

<g transform="translate(0.000000,1368.000000) scale(0.100000,-0.100000)"
fill="#000000" stroke="none">
<path d="M2412 11770 c0 -19 2 -27 5 -17 2 9 2 25 0 35 -3 9 -5 1 -5 -18z"/>
<path d="M2862 7078 c-1 -2502 1 -4548 6 -4548 6 0 6 3032 -1 7450 -1 905 -3
-401 -5 -2902z"/>
<path d="M3625 10860 c71 -71 132 -130 135 -130 2 0 -54 59 -125 130 -71 72
-132 130 -135 130 -2 0 54 -58 125 -130z"/>
<path d="M4365 10760 c110 -110 202 -200 205 -200 3 0 -85 90 -195 200 -110
110 -202 200 -205 200 -3 0 85 -90 195 -200z"/>
<path d="M4595 10530 c10 -11 20 -20 23 -20 3 0 -3 9 -13 20 -10 11 -20 20
-23 20 -3 0 3 -9 13 -20z"/>
<path d="M4705 9790 c10 -11 20 -20 23 -20 3 0 -3 9 -13 20 -10 11 -20 20 -23
20 -3 0 3 -9 13 -20z"/>
<path d="M5035 9460 c126 -126 232 -230 235 -230 3 0 -99 104 -225 230 -126
127 -232 230 -235 230 -3 0 99 -103 225 -230z"/>
<path d="M5895 9240 c49 -49 92 -90 95 -90 2 0 -36 41 -85 90 -49 50 -92 90
-95 90 -2 0 36 -40 85 -90z"/>
<path d="M8590 8213 l-175 -178 178 175 c164 162 182 180 174 180 -1 0 -81
-80 -177 -177z"/>
<path d="M6290 8215 c91 -91 167 -165 170 -165 3 0 -69 74 -160 165 -91 91
-167 165 -170 165 -3 0 69 -74 160 -165z"/>
<path d="M7110 8035 c85 -85 157 -155 160 -155 3 0 -65 70 -150 155 -85 85
-157 155 -160 155 -3 0 65 -70 150 -155z"/>
<path d="M6485 8020 c10 -11 20 -20 23 -20 3 0 -3 9 -13 20 -10 11 -20 20 -23
20 -3 0 3 -9 13 -20z"/>
<path d="M8364 7358 l-19 -23 23 19 c21 18 27 26 19 26 -2 0 -12 -10 -23 -22z"/>
<path d="M8205 7198 l-130 -133 133 130 c72 71 132 131 132 132 0 8 -15 -6
-135 -129z"/>
<path d="M11531 7074 c0 -11 3 -14 6 -6 3 7 2 16 -1 19 -3 4 -6 -2 -5 -13z"/>
<path d="M6965 6600 c-82 -82 -147 -150 -145 -150 3 0 73 68 155 150 82 83
147 150 145 150 -3 0 -73 -67 -155 -150z"/>
<path d="M8540 6615 c47 -47 87 -85 90 -85 2 0 -33 38 -80 85 -47 47 -87 85
-90 85 -2 0 33 -38 80 -85z"/>
<path d="M7460 6465 c-107 -107 -193 -195 -190 -195 3 0 93 88 200 195 107
107 193 195 190 195 -3 0 -93 -88 -200 -195z"/>
<path d="M8405 6120 c104 -104 192 -190 195 -190 3 0 -81 86 -185 190 -104
105 -192 190 -195 190 -3 0 81 -85 185 -190z"/>
<path d="M5745 5390 c-115 -115 -208 -210 -205 -210 3 0 100 95 215 210 115
116 208 210 205 210 -3 0 -100 -94 -215 -210z"/>
<path d="M5934 4948 l-19 -23 23 19 c12 11 22 21 22 23 0 8 -8 2 -26 -19z"/>
<path d="M5884 4898 l-19 -23 23 19 c12 11 22 21 22 23 0 8 -8 2 -26 -19z"/>
<path d="M5550 4563 l-305 -308 308 305 c285 283 312 310 304 310 -1 0 -139
-138 -307 -307z"/>
<path d="M4280 3933 l-65 -68 68 65 c62 60 72 70 64 70 -1 0 -32 -30 -67 -67z"/>
<path d="M3130 2793 l-165 -168 168 165 c92 91 167 166 167 167 0 8 -17 -9
-170 -164z"/>
<path d="M2412 2285 c0 -16 2 -22 5 -12 2 9 2 23 0 30 -3 6 -5 -1 -5 -18z"/>
</g>
</svg>
